<svg xmlns="http://www.w3.org/2000/svg" width="48" height="48" viewBox="0 0 48 48" fill="none">
  <g clip-path="url(#clip0_317_357)">
    <path d="M1.40625 8.53125H19.7812V12.75C19.7812 13.5273 20.4102 14.1562 21.1875 14.1562H29.625C30.4023 14.1562 31.0312 13.5273 31.0312 12.75V1.40625C31.0312 0.628969 30.4023 0 29.625 0H21.1875C20.4102 0 19.7812 0.628969 19.7812 1.40625V5.71875H1.40625C0.628969 5.71875 0 6.34772 0 7.125C0 7.90228 0.628969 8.53125 1.40625 8.53125Z" fill="#8EB547"/>
    <path d="M47.0387 19.854L38.5074 17.0415C38.3633 16.9935 38.2135 16.9688 38.0625 16.9688H18.375C17.5977 16.9688 16.9688 17.5977 16.9688 18.375V29.625C16.9688 30.4023 17.5977 31.0312 18.375 31.0312H19.7812V35.3438C19.7812 37.6701 17.8888 39.5625 15.5625 39.5625H12.75C11.9727 39.5625 11.3438 40.1915 11.3438 40.9688V46.5938C11.3438 47.371 11.9727 48 12.75 48H21.1875C21.9648 48 22.5938 47.371 22.5938 46.5938C22.5938 45.8179 23.2241 45.1875 24 45.1875H29.625C30.4009 45.1875 31.0312 45.8179 31.0312 46.5938C31.0312 47.371 31.6602 48 32.4375 48H40.875C41.6523 48 42.2812 47.371 42.2812 46.5938V40.9688C42.2812 40.1915 41.6523 39.5625 40.875 39.5625H39.4688C36.3665 39.5625 33.8438 36.946 33.8438 33.8438C33.8438 30.8807 36.3142 28.2188 39.4688 28.2188H46.5938C47.371 28.2188 48 27.5898 48 26.8125V21.1875C48 20.5819 47.6127 20.0449 47.0387 19.854Z" fill="#8EB547"/>
    <path d="M13.7442 16.5567C14.2935 16.0075 14.2935 15.1175 13.7442 14.5682L10.9317 11.7557C10.3825 11.2064 9.49249 11.2064 8.94321 11.7557C8.39393 12.305 8.39393 13.195 8.94321 13.7442L11.7557 16.5567C12.3051 17.1061 13.195 17.1061 13.7442 16.5567Z" fill="white"/>
    <path d="M36.2442 13.7442L39.0567 10.9317C39.606 10.3825 39.606 9.49249 39.0567 8.94321C38.5075 8.39393 37.6175 8.39393 37.0682 8.94321L34.2557 11.7557C33.7064 12.305 33.7064 13.195 34.2557 13.7442C34.805 14.2935 35.695 14.2936 36.2442 13.7442Z" fill="white"/>
    <path d="M14.4127 31.0312C14.2552 30.5892 14.1562 30.1204 14.1562 29.625V19.7812H4.3125C3.53522 19.7812 2.90625 20.4102 2.90625 21.1875C2.90625 26.6148 7.32272 31.0312 12.75 31.0312H14.4127Z" fill="#8EB547"/>
  </g>
  <defs>
    <clipPath id="clip0_317_357">
      <rect width="48" height="48" fill="white"/>
    </clipPath>
  </defs>
</svg>