<svg width="16.000000" height="16.000000" viewBox="0 0 16 16" fill="none" xmlns="http://www.w3.org/2000/svg" xmlns:xlink="http://www.w3.org/1999/xlink">
	<desc>
			Created with Pixso.
	</desc>
	<defs>
		<clipPath id="clip477_2223">
			<rect id="simple-line-icons:arrow-right" width="16.000000" height="16.000000" transform="matrix(-1 0 0 1 16 0)" fill="white" fill-opacity="0"/>
		</clipPath>
	</defs>
	<rect id="simple-line-icons:arrow-right" width="16.000000" height="16.000000" transform="matrix(-1 0 0 1 16 0)" fill="#FFFFFF" fill-opacity="0"/>
	<g clip-path="url(#clip477_2223)">
		<path id="Vector" d="M10.79 15.98C10.93 15.98 11.07 15.93 11.17 15.82C11.38 15.62 11.38 15.28 11.17 15.07L4.04 7.93L11.07 0.91C11.28 0.7 11.28 0.36 11.07 0.15C10.86 -0.06 10.52 -0.06 10.31 0.15L2.91 7.56C2.7 7.76 2.7 8.11 2.91 8.31L10.41 15.82C10.52 15.93 10.66 15.98 10.79 15.98L10.79 15.98Z" fill="#FFFFFF" fill-opacity="1.000000" fill-rule="nonzero"/>
	</g>
</svg>
