<svg width="48" height="48" viewBox="0 0 48 48" fill="none" xmlns="http://www.w3.org/2000/svg">
<g clip-path="url(#clip0_82_172)">
<path d="M46.909 0H1.09094C0.487941 0 0 0.487941 0 1.09094C0 1.69394 0.487941 2.18188 1.09094 2.18188H4.36366V4.36366H3.27272C2.85933 4.36366 2.48225 4.59694 2.29683 4.96665L0.115056 9.33021C-0.0532839 9.66791 -0.0362044 10.0695 0.161897 10.3913C0.362146 10.713 0.713759 10.9091 1.09084 10.9091H4.36355V13.0909H3.27272C2.85933 13.0909 2.48225 13.3241 2.29683 13.6939L0.115056 18.0574C-0.0532839 18.3951 -0.0362044 18.7967 0.161897 19.1185C0.362249 19.4402 0.713759 19.6363 1.09094 19.6363H4.36366V21.8181H3.27272C2.85933 21.8181 2.48225 22.0514 2.29683 22.4211L0.115056 26.7847C-0.0532839 27.1224 -0.0362044 27.5241 0.161897 27.8458C0.362146 28.1675 0.713759 28.3636 1.09084 28.3636H4.36355V30.5454H3.27272C2.85933 30.5454 2.48225 30.7787 2.29683 31.1484L0.115056 35.5119C-0.0532839 35.8496 -0.0362044 36.2513 0.161897 36.573C0.362146 36.8948 0.713759 37.0908 1.09084 37.0908H4.36355V39.2705H3.27272C2.85933 39.2705 2.48225 39.5038 2.29683 39.8735L0.115056 44.2371C-0.0532839 44.5748 -0.0362044 44.9764 0.161897 45.2982C0.362146 45.6199 0.713759 45.816 1.09084 45.816H4.36355V46.9091C4.36355 47.5121 4.85149 48 5.45449 48C6.05749 48 6.54543 47.5121 6.54543 46.9091V45.816H37.0908V46.9091C37.0908 47.5121 37.5788 48 38.1818 48C38.7848 48 39.2726 47.512 39.2726 46.909V45.8159H42.5453C42.9225 45.8159 43.274 45.6198 43.4742 45.2981C43.6725 44.9763 43.6894 44.5747 43.5211 44.237L41.3393 39.8733C41.1539 39.5036 40.7768 39.2703 40.3634 39.2703H39.2726V37.0906H42.5453C42.9225 37.0906 43.274 36.8946 43.4742 36.5728C43.6725 36.2511 43.6894 35.8494 43.5211 35.5117L41.3393 31.1481C41.1539 30.7784 40.7768 30.5451 40.3634 30.5451H39.2726V28.3633H42.5453C42.9225 28.3633 43.274 28.1672 43.4742 27.8455C43.6725 27.5237 43.6894 27.1221 43.5211 26.7844L41.3393 22.4208C41.1539 22.051 40.7768 21.8178 40.3634 21.8178H39.2726V19.6363H42.5453C42.9225 19.6363 43.274 19.4402 43.4742 19.1185C43.6725 18.7967 43.6894 18.3951 43.5211 18.0574L41.3393 13.6938C41.1539 13.324 40.7768 13.0908 40.3634 13.0908H39.2726V10.909H42.5453C42.9225 10.909 43.274 10.7129 43.4742 10.3912C43.6725 10.0694 43.6894 9.66781 43.5211 9.3301L41.3393 4.96645C41.1539 4.59673 40.7768 4.36345 40.3634 4.36345H39.2726V2.18178H43.6362V31.6362C43.6362 32.2392 44.1242 32.7272 44.7272 32.7272C45.3302 32.7272 45.818 32.2392 45.818 31.6362V2.18178H46.909C47.512 2.18178 47.9999 1.69384 47.9999 1.09084C47.9999 0.487839 47.512 0 46.909 0ZM37.0908 39.2704H6.54543V37.0907H37.0908V39.2704ZM37.0908 30.5454H6.54543V28.3636H37.0908V30.5454ZM37.0908 21.8181H6.54543V19.6363H37.0908V21.8181ZM37.0908 13.0909H6.54543V10.9091H37.0908V13.0909ZM37.0908 4.36366H6.54543V2.18178H37.0908V4.36366Z" fill="#8EB547"/>
</g>
<defs>
<clipPath id="clip0_82_172">
<rect width="48" height="48" fill="white"/>
</clipPath>
</defs>
</svg>
