<svg width="24" height="24" viewBox="0 0 24 24" fill="none" xmlns="http://www.w3.org/2000/svg">
<path d="M6 22C5.45 22 4.97933 21.8043 4.588 21.413C4.196 21.021 4 20.55 4 20V4C4 3.45 4.196 2.979 4.588 2.587C4.97933 2.19567 5.45 2 6 2H18C18.55 2 19.021 2.19567 19.413 2.587C19.8043 2.979 20 3.45 20 4V20C20 20.55 19.8043 21.021 19.413 21.413C19.021 21.8043 18.55 22 18 22H6ZM15.5 13.5C15.9167 13.5 16.2707 13.354 16.562 13.062C16.854 12.7707 17 12.4167 17 12C17 11.5833 16.854 11.2293 16.562 10.938C16.2707 10.646 15.9167 10.5 15.5 10.5C15.0833 10.5 14.7293 10.646 14.438 10.938C14.146 11.2293 14 11.5833 14 12C14 12.4167 14.146 12.7707 14.438 13.062C14.7293 13.354 15.0833 13.5 15.5 13.5Z" fill="white"/>
</svg>
