<svg width="40" height="40" viewBox="0 0 40 40" fill="none" xmlns="http://www.w3.org/2000/svg">
<rect width="40" height="40" rx="8" fill="#C7E7C6" fill-opacity="0.25"/>
<path d="M14 30C13.45 30 12.9793 29.8043 12.588 29.413C12.196 29.021 12 28.55 12 28V12C12 11.45 12.196 10.979 12.588 10.587C12.9793 10.1957 13.45 10 14 10H26C26.55 10 27.021 10.1957 27.413 10.587C27.8043 10.979 28 11.45 28 12V28C28 28.55 27.8043 29.021 27.413 29.413C27.021 29.8043 26.55 30 26 30H14ZM23.5 21.5C23.9167 21.5 24.2707 21.354 24.562 21.062C24.854 20.7707 25 20.4167 25 20C25 19.5833 24.854 19.2293 24.562 18.938C24.2707 18.646 23.9167 18.5 23.5 18.5C23.0833 18.5 22.7293 18.646 22.438 18.938C22.146 19.2293 22 19.5833 22 20C22 20.4167 22.146 20.7707 22.438 21.062C22.7293 21.354 23.0833 21.5 23.5 21.5Z" fill="#8EB547"/>
</svg>
