<svg width="24" height="24" viewBox="0 0 24 24" fill="none" xmlns="http://www.w3.org/2000/svg">
<g clip-path="url(#clip0_1_325)">
<path fill-rule="evenodd" clip-rule="evenodd" d="M12 0C18.6274 0 24 5.37258 24 12C24 18.6274 18.6274 24 12 24C5.37258 24 0 18.6274 0 12C0 5.37258 5.37258 0 12 0ZM19.1411 17.0056C19.4036 17.0056 19.6172 16.7919 19.6172 16.5294V7.53609L12.3383 13.3162C12.2393 13.3951 12.1196 13.4344 11.9999 13.4344C11.8802 13.4344 11.7607 13.3951 11.6616 13.3162L4.38277 7.53609V16.5294C4.38277 16.7919 4.59633 17.0056 4.85887 17.0056H19.1411ZM18.5495 6.99441H5.45039L12 12.1955L18.5495 6.99441Z" fill="white"/>
</g>
<defs>
<clipPath id="clip0_1_325">
<rect width="24" height="24" fill="white"/>
</clipPath>
</defs>
</svg>
