<svg width="24" height="24" viewBox="0 0 24 24" fill="none" xmlns="http://www.w3.org/2000/svg">
<g clip-path="url(#clip0_1_327)">
<path fill-rule="evenodd" clip-rule="evenodd" d="M12 23.7188C18.4721 23.7188 23.7188 18.4721 23.7188 12C23.7188 5.52792 18.4721 0.28125 12 0.28125C5.52792 0.28125 0.28125 5.52792 0.28125 12C0.28125 18.4721 5.52792 23.7188 12 23.7188ZM7.87448 9.87188H10.3078V7.78495C10.3078 5.36489 11.7853 4.04766 13.944 4.04766C14.6727 4.04507 15.401 4.0823 16.1256 4.15917V6.68855H14.6369C13.4623 6.68855 13.2349 7.24669 13.2349 8.06583V9.87188H16.0432L15.6772 12.7078H13.2351V19.9523H10.3078V12.7078H7.87448V9.87188Z" fill="white"/>
</g>
<defs>
<clipPath id="clip0_1_327">
<rect width="24" height="24" fill="white"/>
</clipPath>
</defs>
</svg>
