<svg width="24" height="24" viewBox="0 0 24 24" fill="none" xmlns="http://www.w3.org/2000/svg">
<path d="M20.5295 17.2207C21.4935 15.6502 22.0026 13.8429 22 12.0002C22.0026 10.1574 21.4935 8.34975 20.5295 6.77922L20.524 6.77065C19.6297 5.31298 18.3764 4.10901 16.8841 3.27379C15.3918 2.43857 13.7102 2.00001 12 2C10.2899 1.99999 8.60829 2.43855 7.11595 3.27375C5.62361 4.10896 4.37039 5.31292 3.47604 6.77058L3.47048 6.77926C2.50888 8.35087 2.00001 10.1575 2 12C1.99999 13.8424 2.50885 15.6491 3.47044 17.2207L3.47609 17.2295C4.37045 18.6871 5.62367 19.8911 7.116 20.7263C8.60833 21.5615 10.2899 22 12 22C13.7102 22 15.3918 21.5614 16.8841 20.7262C18.3764 19.891 19.6296 18.6871 20.5239 17.2294L20.5295 17.2207ZM13.2782 20.2861C13.0877 20.47 12.8684 20.6215 12.6289 20.7346C12.4324 20.828 12.2176 20.8764 12 20.8764C11.7824 20.8764 11.5676 20.828 11.3711 20.7346C10.9155 20.5019 10.5254 20.1586 10.2367 19.7363C9.64692 18.8841 9.20988 17.9359 8.94507 16.9339C9.96235 16.8713 10.9807 16.8394 12 16.8383C13.0189 16.8383 14.0373 16.8701 15.0551 16.9339C14.9085 17.4491 14.7254 17.9531 14.5072 18.4423C14.2199 19.1302 13.8026 19.7562 13.2782 20.2861ZM3.14315 12.5618H7.17663C7.2029 13.6873 7.32489 14.8085 7.54129 15.9133C6.4387 16.0103 5.33892 16.1436 4.24195 16.3131C3.59959 15.1606 3.22409 13.8787 3.14315 12.5618ZM4.24194 7.68692C5.33848 7.85684 6.43865 7.99013 7.54245 8.08679C7.32562 9.19151 7.20335 10.3127 7.17699 11.4382H3.14315C3.22409 10.1213 3.59958 8.83937 4.24194 7.68692ZM10.7218 3.71385C10.9123 3.52999 11.1316 3.3785 11.3711 3.2654C11.5676 3.17203 11.7824 3.12358 12 3.12358C12.2176 3.12358 12.4324 3.17203 12.6289 3.2654C13.0845 3.49813 13.4746 3.84135 13.7633 4.26368C14.3531 5.11587 14.7901 6.06413 15.0549 7.06607C14.0376 7.12867 13.0193 7.16056 12 7.16174C10.9811 7.16173 9.96272 7.12983 8.94489 7.06606C9.09146 6.5509 9.27455 6.04684 9.49276 5.55771C9.78009 4.8698 10.1974 4.24375 10.7218 3.71385ZM20.8569 11.4382H16.8234C16.7971 10.3127 16.6751 9.1915 16.4587 8.08669C17.5613 7.98966 18.6611 7.85641 19.7581 7.68691C20.4004 8.83937 20.7759 10.1213 20.8569 11.4382ZM8.67137 15.826C8.45163 14.751 8.32753 13.6587 8.30052 12.5618H15.6996C15.6728 13.6587 15.549 14.751 15.3294 15.826C14.2208 15.7532 13.111 15.7161 12 15.7147C10.8898 15.7147 9.78024 15.7518 8.67137 15.826ZM15.3286 8.17404C15.5484 9.24901 15.6725 10.3413 15.6995 11.4382H8.3004C8.32716 10.3413 8.45104 9.249 8.67057 8.17399C9.77916 8.24672 10.889 8.28384 12 8.28532C13.1102 8.28532 14.2198 8.24822 15.3286 8.17404ZM16.823 12.5618H20.8569C20.7759 13.8787 20.4004 15.1606 19.7581 16.3131C18.6615 16.1431 17.5614 16.0099 16.4576 15.9132C16.6744 14.8085 16.7966 13.6873 16.823 12.5618ZM19.0844 6.65276C18.1256 6.79108 17.1641 6.9006 16.1996 6.9813C16.0262 6.33593 15.8027 5.7051 15.5309 5.0946C15.2829 4.53279 14.9707 4.00153 14.6006 3.51139C16.3889 4.05982 17.9582 5.15928 19.0844 6.65276ZM5.72341 5.72341C6.74923 4.69661 8.01127 3.93712 9.39889 3.51152C9.37784 3.53879 9.35618 3.56485 9.33543 3.59267C8.62219 4.61941 8.10267 5.76789 7.80248 6.98147C6.83796 6.89978 5.87568 6.79021 4.91564 6.65276C5.16324 6.3248 5.43313 6.01428 5.72341 5.72341ZM4.91563 17.3472C5.87435 17.2089 6.83594 17.0994 7.80042 17.0187C7.97376 17.6641 8.19732 18.2949 8.46906 18.9054C8.71715 19.4672 9.02932 19.9985 9.39936 20.4886C7.61107 19.9402 6.0418 18.8407 4.91563 17.3472ZM18.2766 18.2766C17.2508 19.3034 15.9887 20.0629 14.6011 20.4885C14.6222 20.4612 14.6438 20.4352 14.6646 20.4073C15.3778 19.3806 15.8973 18.2321 16.1975 17.0185C17.1621 17.1002 18.1243 17.2098 19.0844 17.3472C18.8368 17.6752 18.5669 17.9857 18.2766 18.2766Z" fill="white"/>
</svg>
