<svg xmlns="http://www.w3.org/2000/svg" width="30" height="31" viewBox="0 0 30 31" fill="none">
  <g filter="url(#filter0_d_204_551)">
    <path d="M24.1095 17.5758C25.139 15.8985 25.6827 13.9683 25.6799 12.0003V11.9999C25.6827 10.0318 25.139 8.10159 24.1094 6.42427L24.1036 6.41512C23.1484 4.85833 21.81 3.57249 20.2162 2.68048C18.6224 1.78846 16.8264 1.32008 15 1.32007C13.1735 1.32006 11.3776 1.78844 9.78378 2.68044C8.18996 3.57244 6.85152 4.85826 5.89635 6.41504L5.89042 6.42432C4.86342 8.10279 4.31995 10.0323 4.31995 12C4.31994 13.9678 4.86339 15.8973 5.89038 17.5758L5.89641 17.5852C6.85159 19.1419 8.19002 20.4277 9.78383 21.3197C11.3776 22.2117 13.1736 22.6801 15 22.6801C16.8264 22.68 18.6223 22.2117 20.2161 21.3197C21.8099 20.4277 23.1484 19.1418 24.1035 17.5851L24.1095 17.5758ZM16.3651 20.8496C16.1616 21.046 15.9273 21.2078 15.6716 21.3286C15.4618 21.4283 15.2323 21.4801 14.9999 21.4801C14.7676 21.4801 14.5381 21.4283 14.3282 21.3286C13.8416 21.08 13.4251 20.7135 13.1167 20.2624C12.4869 19.3523 12.0201 18.3396 11.7373 17.2695C12.8237 17.2026 13.9113 17.1686 14.9999 17.1673C16.0882 17.1673 17.1758 17.2014 18.2628 17.2695C18.1062 17.8197 17.9107 18.358 17.6777 18.8804C17.3708 19.6151 16.9251 20.2837 16.3651 20.8496ZM5.54083 12.6001H9.84859C9.87664 13.8021 10.0069 14.9995 10.238 16.1795C9.06047 16.2831 7.88591 16.4254 6.71435 16.6064C6.02831 15.3756 5.62728 14.0065 5.54083 12.6001ZM6.71434 7.39369C7.88544 7.57517 9.06042 7.71752 10.2393 7.82075C10.0077 9.0006 9.87712 10.198 9.84897 11.4001H5.54083C5.62727 9.99362 6.0283 8.62451 6.71434 7.39369ZM13.6348 3.15046C13.8383 2.95409 14.0725 2.79231 14.3282 2.67152C14.5381 2.57179 14.7676 2.52005 14.9999 2.52005C15.2323 2.52005 15.4618 2.57179 15.6716 2.67152C16.1582 2.92007 16.5748 3.28662 16.8832 3.73767C17.513 4.64781 17.9798 5.66055 18.2626 6.73063C17.1761 6.79748 16.0886 6.83154 14.9999 6.8328C13.9117 6.83279 12.8241 6.79873 11.7371 6.73062C11.8936 6.18043 12.0892 5.6421 12.3222 5.1197C12.6291 4.38501 13.0747 3.71639 13.6348 3.15046ZM24.4591 11.4001H20.1513C20.1233 10.198 19.993 9.00058 19.7619 7.82065C20.9394 7.71703 22.114 7.57471 23.2855 7.39369C23.9716 8.62451 24.3726 9.99362 24.4591 11.4001ZM11.445 16.0862C11.2103 14.9381 11.0777 13.7715 11.0489 12.6001H18.9511C18.9225 13.7715 18.7902 14.9381 18.5558 16.0862C17.3718 16.0085 16.1865 15.9689 14.9999 15.9673C13.8142 15.9673 12.6292 16.0069 11.445 16.0862ZM18.5549 7.91394C18.7896 9.06201 18.9221 10.2286 18.951 11.4001H11.0488C11.0774 10.2286 11.2096 9.06199 11.4441 7.91389C12.6281 7.99157 13.8134 8.0312 14.9999 8.03279C16.1857 8.03279 17.3707 7.99316 18.5549 7.91394ZM20.1509 12.6001H24.4591C24.3726 14.0065 23.9716 15.3756 23.2855 16.6064C22.1144 16.4249 20.9395 16.2826 19.7606 16.1794C19.9922 14.9995 20.1228 13.8021 20.1509 12.6001ZM22.566 6.28921C21.5421 6.43694 20.5151 6.5539 19.4851 6.64009C19.3 5.95083 19.0612 5.27711 18.771 4.6251C18.506 4.02509 18.1726 3.4577 17.7774 2.93423C19.6873 3.51996 21.3633 4.69418 22.566 6.28921ZM8.29654 5.29666C9.39212 4.20004 10.74 3.38891 12.222 2.93437C12.1995 2.96349 12.1763 2.99132 12.1542 3.02104C11.3924 4.1176 10.8376 5.34417 10.517 6.64028C9.48688 6.55303 8.45917 6.43601 7.43384 6.28921C7.69828 5.93895 7.98653 5.60732 8.29654 5.29666ZM7.43384 17.7109C8.45775 17.5632 9.48473 17.4462 10.5148 17.36C10.6999 18.0493 10.9387 18.723 11.2289 19.375C11.4939 19.975 11.8273 20.5424 12.2225 21.0659C10.3126 20.4802 8.63659 19.3059 7.43384 17.7109ZM21.7033 18.7035C20.6078 19.8001 19.2599 20.6112 17.7779 21.0657C17.8004 21.0366 17.8235 21.0088 17.8457 20.9791C18.6074 19.8825 19.1623 18.6559 19.4829 17.3598C20.513 17.4471 21.5407 17.5641 22.566 17.7109C22.3016 18.0612 22.0134 18.3928 21.7033 18.7035Z" fill="white"/>
  </g>
  <defs>
    <filter id="filter0_d_204_551" x="-1" y="0" width="32" height="32" filterUnits="userSpaceOnUse" color-interpolation-filters="sRGB">
      <feFlood flood-opacity="0" result="BackgroundImageFix"/>
      <feColorMatrix in="SourceAlpha" type="matrix" values="0 0 0 0 0 0 0 0 0 0 0 0 0 0 0 0 0 0 127 0" result="hardAlpha"/>
      <feOffset dy="4"/>
      <feGaussianBlur stdDeviation="2"/>
      <feComposite in2="hardAlpha" operator="out"/>
      <feColorMatrix type="matrix" values="0 0 0 0 0 0 0 0 0 0 0 0 0 0 0 0 0 0 0.25 0"/>
      <feBlend mode="normal" in2="BackgroundImageFix" result="effect1_dropShadow_204_551"/>
      <feBlend mode="normal" in="SourceGraphic" in2="effect1_dropShadow_204_551" result="shape"/>
    </filter>
  </defs>
</svg>