<svg width="24" height="24" viewBox="0 0 24 24" fill="none" xmlns="http://www.w3.org/2000/svg">
<g clip-path="url(#clip0_21_511)">
<path d="M21.9918 2.26888C19.3138 -0.685658 15.0519 -0.790225 12.3738 2.16432L12.0204 2.55435C12.0204 2.55435 11.6925 2.19255 11.6783 2.17739C10.3862 0.775666 8.67902 0.00448428 6.8643 0.00448428C5.03016 0.00448428 3.30546 0.792919 2.00815 2.22392C-0.669384 5.17898 -0.669384 9.98645 2.00815 12.9415L12.0204 24L21.9918 12.9865C24.6694 10.0314 24.6694 5.22342 21.9918 2.26888ZM19.6599 7.28935C19.6599 5.99617 18.7064 4.94407 17.5345 4.94407V3.37557C19.4902 3.37557 21.0813 5.1313 21.0813 7.28935H19.6599Z" fill="#8EB547"/>
</g>
<defs>
<clipPath id="clip0_21_511">
<rect width="24" height="24" fill="white"/>
</clipPath>
</defs>
</svg>
