<svg width="24" height="24" viewBox="0 0 24 24" fill="none" xmlns="http://www.w3.org/2000/svg">
<g clip-path="url(#clip0_22_372)">
<path d="M23.5969 10.729L12.8289 0.917277C12.3563 0.486543 11.6435 0.48659 11.1711 0.91723L0.403033 10.7291C0.0244239 11.0741 -0.100638 11.6056 0.08433 12.0833C0.269345 12.5609 0.719813 12.8694 1.23202 12.8694H2.95186V22.7001C2.95186 23.0899 3.26789 23.4059 3.65765 23.4059H9.55986C9.94962 23.4059 10.2657 23.0899 10.2657 22.7001V16.7312H13.7345V22.7001C13.7345 23.0899 14.0505 23.4059 14.4403 23.4059H20.3422C20.732 23.4059 21.048 23.09 21.048 22.7001V12.8694H22.7682C23.2803 12.8694 23.7308 12.5608 23.9159 12.0833C24.1006 11.6056 23.9755 11.0741 23.5969 10.729Z" fill="white"/>
<path d="M20.8637 2.00293H16.1237L21.5695 6.95461V2.70868C21.5695 2.31891 21.2535 2.00293 20.8637 2.00293Z" fill="white"/>
</g>
<defs>
<clipPath id="clip0_22_372">
<rect width="24" height="24" fill="white"/>
</clipPath>
</defs>
</svg>
