<svg width="48" height="48" viewBox="0 0 48 48" fill="none" xmlns="http://www.w3.org/2000/svg">
<g clip-path="url(#clip0_201_251)">
<path d="M47.1939 21.458L25.6578 1.83443C24.7125 0.972964 23.2871 0.973058 22.3422 1.83434L0.806065 21.458C0.0488478 22.148 -0.201277 23.2112 0.16866 24.1664C0.538691 25.1216 1.43963 25.7388 2.46403 25.7388H5.90371V45.4001C5.90371 46.1796 6.53577 46.8117 7.3153 46.8117H19.1197C19.8992 46.8117 20.5313 46.1797 20.5313 45.4001V33.4623H27.469V45.4002C27.469 46.1797 28.101 46.8117 28.8806 46.8117H40.6844C41.464 46.8117 42.096 46.1798 42.096 45.4002V25.7388H45.5364C46.5607 25.7388 47.4617 25.1215 47.8317 24.1664C48.2012 23.2111 47.9511 22.148 47.1939 21.458Z" fill="#8EB547"/>
<path d="M41.7274 4.00598H32.2476L43.139 13.9093V5.41748C43.139 4.63795 42.5071 4.00598 41.7274 4.00598Z" fill="#8EB547"/>
</g>
<defs>
<clipPath id="clip0_201_251">
<rect width="48" height="48" fill="white"/>
</clipPath>
</defs>
</svg>
