<svg xmlns="http://www.w3.org/2000/svg" width="48" height="48" viewBox="0 0 48 48" fill="none">
  <g clip-path="url(#clip0_317_317)">
    <path d="M14.5312 0H1.40625C0.629625 0 0 0.629625 0 1.40625V4.6875H15.9375V1.40625C15.9375 0.629625 15.3079 0 14.5312 0Z" fill="#8EB547"/>
    <path d="M47.2935 13.4052C46.8564 13.1545 46.3188 13.1567 45.8839 13.4111L31.9688 21.5486V14.625C31.9688 14.1212 31.6992 13.6559 31.2622 13.4052C30.8252 13.1545 30.2875 13.1567 29.8526 13.4111L15.9375 21.5486V7.5H0V46.5938C0 47.3704 0.629625 48 1.40625 48H46.5938C47.3704 48 48 47.3704 48 46.5938V14.625C48 14.1212 47.7305 13.6559 47.2935 13.4052ZM21.5625 38.1094C21.5625 38.886 20.9329 39.5156 20.1562 39.5156H14.5312C13.7546 39.5156 13.125 38.886 13.125 38.1094V32.4844C13.125 31.7077 13.7546 31.0781 14.5312 31.0781H20.1562C20.9329 31.0781 21.5625 31.7077 21.5625 32.4844V38.1094ZM37.5938 38.1094C37.5938 38.886 36.9641 39.5156 36.1875 39.5156H30.5625C29.7859 39.5156 29.1562 38.886 29.1562 38.1094V32.4844C29.1562 31.7077 29.7859 31.0781 30.5625 31.0781H36.1875C36.9641 31.0781 37.5938 31.7077 37.5938 32.4844V38.1094Z" fill="#8EB547"/>
  </g>
  <defs>
    <clipPath id="clip0_317_317">
      <rect width="48" height="48" fill="white"/>
    </clipPath>
  </defs>
</svg>