<svg width="24" height="24" viewBox="0 0 24 24" fill="none" xmlns="http://www.w3.org/2000/svg">
<path d="M20.1601 8.06396H14.6881C15.0721 7.39196 15.2641 6.62396 15.3601 5.75996C15.7441 3.55196 14.0161 1.63196 11.8081 1.63196H11.2321C10.8481 1.63196 10.4641 2.01596 10.4641 2.39996V4.70396C10.4641 6.52796 9.50407 8.25596 7.87207 9.21596V21.216L8.64007 21.792C9.21607 22.176 9.88807 22.464 10.5601 22.464H19.0081C20.6401 22.464 21.9841 21.312 22.1761 19.776L23.4241 11.808C23.8081 9.88796 22.4641 8.06396 20.1601 8.06396Z" fill="#8EB547"/>
<path d="M1.91998 21.792H4.41598C5.18398 21.792 5.85598 21.12 5.85598 20.352V10.56C5.85598 9.792 5.18398 9.12 4.41598 9.12H1.91998C1.15198 9.12 0.47998 9.792 0.47998 10.56V20.352C0.47998 21.12 1.15198 21.792 1.91998 21.792Z" fill="#8EB547"/>
</svg>
