<svg width="24" height="24" viewBox="0 0 24 24" fill="none" xmlns="http://www.w3.org/2000/svg">
<path d="M20.16 8.06408H14.688C15.072 7.39208 15.264 6.62408 15.36 5.76008C15.744 3.55208 14.016 1.63208 11.808 1.63208H11.232C10.848 1.63208 10.464 2.01608 10.464 2.40008V4.70408C10.464 6.52808 9.50401 8.25608 7.87201 9.21608V21.2161L8.64001 21.7921C9.21601 22.1761 9.88801 22.4641 10.56 22.4641H19.008C20.64 22.4641 21.984 21.3121 22.176 19.7761L23.424 11.8081C23.808 9.88808 22.464 8.06408 20.16 8.06408Z" fill="white"/>
<path d="M1.91998 21.7921H4.41598C5.18398 21.7921 5.85598 21.1201 5.85598 20.3521V10.5601C5.85598 9.79212 5.18398 9.12012 4.41598 9.12012H1.91998C1.15198 9.12012 0.47998 9.79212 0.47998 10.5601V20.3521C0.47998 21.1201 1.15198 21.7921 1.91998 21.7921Z" fill="white"/>
</svg>
