<svg width="48" height="48" viewBox="0 0 48 48" fill="none" xmlns="http://www.w3.org/2000/svg">
<g clip-path="url(#clip0_82_1189)">
<path d="M46.5001 34.2477H46.2529V15.0689H46.5001C47.2765 15.0689 47.9063 14.4394 47.9063 13.6626C47.9063 12.8863 47.2765 12.2564 46.5001 12.2564H46.2529V5.92677C46.2529 3.5376 44.3094 1.59375 41.9199 1.59375C39.5307 1.59375 37.5869 3.5376 37.5869 5.92677V12.2564H35.1289V5.92677C35.1289 3.5376 33.185 1.59375 30.7958 1.59375C28.4067 1.59375 26.4628 3.5376 26.4628 5.92677V12.2564H24.0048V5.92677C24.0048 3.5376 22.061 1.59375 19.6718 1.59375C17.2826 1.59375 15.3388 3.5376 15.3388 5.92677V12.2564H12.8804V5.92677C12.8808 3.5376 10.9369 1.59375 8.54738 1.59375C6.15822 1.59375 4.21473 3.5376 4.21473 5.92677V12.2564H2.71876V11.5082C2.71876 10.7318 2.08924 10.1019 1.3125 10.1019C0.535768 10.1019 -0.09375 10.7318 -0.09375 11.5082V15.817C-0.09375 16.5938 0.535768 17.2233 1.3125 17.2233C2.08924 17.2233 2.71876 16.5938 2.71876 15.817V15.0689H4.21473V42.1953C4.21473 44.5844 6.15822 46.5283 8.54738 46.5283C10.9369 46.5283 12.8808 44.5844 12.8808 42.1953V37.0603H15.3388V42.1953C15.3388 44.5844 17.2826 46.5283 19.6718 46.5283C22.061 46.5283 24.0048 44.5844 24.0048 42.1953V37.0603H26.4628V42.1953C26.4628 44.5844 28.4067 46.5283 30.7962 46.5283C33.185 46.5283 35.1289 44.5844 35.1289 42.1953V37.0603H37.5872V42.1953C37.5872 44.5844 39.5311 46.5283 41.9202 46.5283C44.3094 46.5283 46.2533 44.5844 46.2533 42.1953V37.0603H46.5001C47.2765 37.0603 47.9063 36.4304 47.9063 35.654C47.9063 34.8773 47.2765 34.2477 46.5001 34.2477ZM12.8808 34.2477V15.0689H15.3388V34.2477H12.8808ZM24.0048 34.2477V15.0689H26.4628V34.2477H24.0048ZM35.1289 34.2477V15.0689H37.5869V34.2477H35.1289Z" fill="#8EB547"/>
</g>
<defs>
<clipPath id="clip0_82_1189">
<rect width="48" height="48" fill="white"/>
</clipPath>
</defs>
</svg>
