<svg width="24" height="24" viewBox="0 0 24 24" fill="none" xmlns="http://www.w3.org/2000/svg">
<g clip-path="url(#clip0_1_321)">
<path d="M12 0C5.373 0 0 5.373 0 12C0 18.627 5.373 24 12 24C18.627 24 24 18.627 24 12C24 5.373 18.627 0 12 0ZM18 18.75C10.9695 18.75 5.25 13.0305 5.25 6C5.25 5.586 5.586 5.25 6 5.25H8.769C9.183 5.25 9.519 5.586 9.519 6C9.519 7.296 9.801 8.5305 10.3575 9.6675C10.446 9.8475 10.458 10.053 10.392 10.242C10.3275 10.431 10.1895 10.5855 10.0095 10.6725L8.8905 11.2125C9.822 12.834 11.166 14.1795 12.786 15.108L13.326 13.9905C13.413 13.8105 13.5675 13.674 13.7565 13.608C13.9455 13.5435 14.1525 13.5555 14.331 13.6425C15.471 14.199 16.704 14.481 17.9985 14.481C18.4125 14.481 18.7485 14.817 18.7485 15.231V18H18.75C18.75 18.414 18.414 18.75 18 18.75Z" fill="white"/>
</g>
<defs>
<clipPath id="clip0_1_321">
<rect width="24" height="24" fill="white"/>
</clipPath>
</defs>
</svg>
