<svg width="24" height="24" viewBox="0 0 24 24" fill="none" xmlns="http://www.w3.org/2000/svg">
<g clip-path="url(#clip0_21_508)">
<path d="M5.79297 13.2294L5.79302 13.2296C5.80787 13.2146 5.80689 13.2155 5.79297 13.2294Z" fill="#8EB547"/>
<path d="M23.4679 9.91215L22.2745 9.62518C22.015 8.49235 21.568 7.41582 20.9433 6.41486L21.5481 5.39945C21.7129 5.12279 21.6682 4.76987 21.441 4.54262L19.4589 2.56051C19.2316 2.33396 18.8794 2.28864 18.602 2.4534L17.5866 3.05823C16.5857 2.43348 15.5091 1.98653 14.3763 1.72703L14.0893 0.53359C14.0111 0.221215 13.7303 0.00146484 13.4076 0.00146484H10.5955C10.2728 0.00146484 9.99199 0.221168 9.91371 0.53359L9.62674 1.72703C8.49391 1.98653 7.41738 2.43348 6.41641 3.05823L5.40101 2.4534C5.12435 2.28859 4.77143 2.33326 4.54418 2.56051L2.56198 4.54257C2.33473 4.76982 2.2901 5.1227 2.45487 5.3994L3.0597 6.41481C2.43495 7.41578 1.98799 8.49231 1.72849 9.62514L0.535055 9.9121C0.22268 9.99039 0.00292969 10.2712 0.00292969 10.5939V13.406C0.00292969 13.7287 0.222633 14.0102 0.535711 14.0877L1.72915 14.3747C1.90216 15.1254 2.16255 15.8465 2.49696 16.5382C3.01329 16.0198 5.60651 13.4154 5.79288 13.2293C5.7837 13.182 5.68324 12.2814 5.68057 12.106C5.62076 8.52353 8.50634 5.67325 12.0042 5.67325C15.526 5.67325 18.3343 8.51303 18.3211 12.0219C18.306 15.2669 15.884 18.0294 12.5013 18.2821C12.355 18.2933 11.6934 18.3909 10.7712 18.2091L7.47162 21.5087C8.16068 21.8411 8.87913 22.0998 9.6267 22.2722L9.91366 23.4663C9.99195 23.7787 10.2727 23.9984 10.5954 23.9984H13.4075C13.7302 23.9984 14.011 23.7787 14.0893 23.4663L14.3763 22.2729C15.5091 22.0134 16.5856 21.5664 17.5866 20.9417L18.602 21.5465C18.8773 21.7113 19.2309 21.666 19.4588 21.4394L21.4409 19.4573C21.6682 19.23 21.7128 18.8771 21.548 18.6004L20.9432 17.585C21.5687 16.5841 22.0149 15.5075 22.2744 14.374L23.4671 14.0877C23.7802 14.0102 23.9999 13.7287 23.9999 13.406V10.5939C23.9999 10.2712 23.7803 9.99039 23.4679 9.91215Z" fill="#8EB547"/>
<path d="M16.7587 10.7147C16.697 10.4727 16.5101 10.2823 16.2691 10.2163C16.0282 10.1502 15.7708 10.219 15.5941 10.3957L13.9898 12C13.4414 12.5484 12.55 12.5484 12.0015 12C11.4537 11.4522 11.4537 10.5597 12.0015 10.0118L13.6065 8.40675C13.7832 8.23013 13.8514 7.97231 13.7853 7.73152C13.7192 7.49072 13.529 7.30355 13.287 7.24205C10.3205 6.48816 7.65088 8.42049 7.16127 11.0889C7.00405 11.9678 7.07408 12.8431 7.3617 13.6491C6.96167 14.0492 0.782892 20.2279 0.616814 20.394C-0.207764 21.2186 -0.207764 22.5601 0.629845 23.3978C1.45963 24.1843 2.73045 24.2174 3.60744 23.3847L10.3524 16.6398C11.4325 17.0253 12.6372 17.0175 13.816 16.6015C15.9402 15.852 17.4268 13.3365 16.7587 10.7147Z" fill="#8EB547"/>
</g>
<defs>
<clipPath id="clip0_21_508">
<rect width="24" height="24" fill="white"/>
</clipPath>
</defs>
</svg>
