<svg width="40" height="40" viewBox="0 0 40 40" fill="none" xmlns="http://www.w3.org/2000/svg">
<rect width="40" height="40" rx="8" fill="#F1F9F0"/>
<g clip-path="url(#clip0_317_402)">
<path d="M13.793 21.2294L13.793 21.2296C13.8079 21.2146 13.8069 21.2155 13.793 21.2294Z" fill="#8EB547"/>
<path d="M31.4679 17.9122L30.2745 17.6252C30.015 16.4924 29.568 15.4158 28.9433 14.4149L29.5481 13.3994C29.7129 13.1228 29.6682 12.7699 29.441 12.5426L27.4589 10.5605C27.2316 10.334 26.8794 10.2886 26.602 10.4534L25.5866 11.0582C24.5857 10.4335 23.5091 9.98653 22.3763 9.72703L22.0893 8.53359C22.0111 8.22121 21.7303 8.00146 21.4076 8.00146H18.5955C18.2728 8.00146 17.992 8.22117 17.9137 8.53359L17.6267 9.72703C16.4939 9.98653 15.4174 10.4335 14.4164 11.0582L13.401 10.4534C13.1244 10.2886 12.7714 10.3333 12.5442 10.5605L10.562 12.5426C10.3347 12.7698 10.2901 13.1227 10.4549 13.3994L11.0597 14.4148C10.4349 15.4158 9.98799 16.4923 9.72849 17.6251L8.53505 17.9121C8.22268 17.9904 8.00293 18.2712 8.00293 18.5939V21.406C8.00293 21.7287 8.22263 22.0102 8.53571 22.0877L9.72915 22.3747C9.90216 23.1254 10.1626 23.8465 10.497 24.5382C11.0133 24.0198 13.6065 21.4154 13.7929 21.2293C13.7837 21.182 13.6832 20.2814 13.6806 20.106C13.6208 16.5235 16.5063 13.6732 20.0042 13.6732C23.526 13.6732 26.3343 16.513 26.3211 20.0219C26.306 23.2669 23.884 26.0294 20.5013 26.2821C20.355 26.2933 19.6934 26.3909 18.7712 26.2091L15.4716 29.5087C16.1607 29.8411 16.8791 30.0998 17.6267 30.2722L17.9137 31.4663C17.9919 31.7787 18.2727 31.9984 18.5954 31.9984H21.4075C21.7302 31.9984 22.011 31.7787 22.0893 31.4663L22.3763 30.2729C23.5091 30.0134 24.5856 29.5664 25.5866 28.9417L26.602 29.5465C26.8773 29.7113 27.2309 29.666 27.4588 29.4394L29.4409 27.4573C29.6682 27.23 29.7128 26.8771 29.548 26.6004L28.9432 25.585C29.5687 24.5841 30.0149 23.5075 30.2744 22.374L31.4671 22.0877C31.7802 22.0102 31.9999 21.7287 31.9999 21.406V18.5939C31.9999 18.2712 31.7803 17.9904 31.4679 17.9122Z" fill="#8EB547"/>
<path d="M24.7587 18.7147C24.697 18.4727 24.5101 18.2823 24.2691 18.2163C24.0282 18.1502 23.7708 18.219 23.5941 18.3957L21.9898 20C21.4414 20.5484 20.55 20.5484 20.0015 20C19.4537 19.4522 19.4537 18.5597 20.0015 18.0118L21.6065 16.4068C21.7832 16.2301 21.8514 15.9723 21.7853 15.7315C21.7192 15.4907 21.529 15.3035 21.287 15.242C18.3205 14.4882 15.6509 16.4205 15.1613 19.0889C15.004 19.9678 15.0741 20.8431 15.3617 21.6491C14.9617 22.0492 8.78289 28.2279 8.61681 28.394C7.79224 29.2186 7.79224 30.5601 8.62985 31.3978C9.45963 32.1843 10.7305 32.2174 11.6074 31.3847L18.3524 24.6398C19.4325 25.0253 20.6372 25.0175 21.816 24.6015C23.9402 23.852 25.4268 21.3365 24.7587 18.7147Z" fill="#8EB547"/>
</g>
<defs>
<clipPath id="clip0_317_402">
<rect width="24" height="24" fill="white" transform="translate(8 8)"/>
</clipPath>
</defs>
</svg>
