<svg xmlns="http://www.w3.org/2000/svg" width="48" height="48" viewBox="0 0 48 48" fill="none">
  <g clip-path="url(#clip0_317_331)">
    <path d="M46.5938 42.375H1.40625C0.628969 42.375 0 43.004 0 43.7812V46.5938C0 47.371 0.628969 48 1.40625 48H46.5938C47.371 48 48 47.371 48 46.5938V43.7812C48 43.004 47.371 42.375 46.5938 42.375Z" fill="#8EB547"/>
    <path d="M24 0C12.3683 0 2.90625 9.462 2.90625 21.0938V39.5625H8.53125V21.0938C8.53125 12.5643 15.4705 5.625 24 5.625C32.5295 5.625 39.4688 12.5643 39.4688 21.0938V39.5625H45.0938V21.0938C45.0938 9.462 35.6317 0 24 0Z" fill="#8EB547"/>
    <path d="M25.4062 8.57959V25.3125H36.6562V21.0937C36.6562 14.5962 31.717 9.28956 25.4062 8.57959Z" fill="#8EB547"/>
    <path d="M11.3438 21.0937V25.3125H22.5938V8.57959C16.283 9.28956 11.3438 14.5962 11.3438 21.0937Z" fill="#8EB547"/>
    <path d="M36.6562 28.125H25.4062V39.5625H36.6562V28.125Z" fill="#8EB547"/>
    <path d="M22.5938 28.125H11.3438V39.5625H22.5938V28.125Z" fill="#8EB547"/>
  </g>
  <defs>
    <clipPath id="clip0_317_331">
      <rect width="48" height="48" fill="white"/>
    </clipPath>
  </defs>
</svg>