<svg xmlns="http://www.w3.org/2000/svg" width="48" height="48" viewBox="0 0 48 48" fill="none">
  <g clip-path="url(#clip0_317_371)">
    <path d="M33.5423 36.7773C30.8963 38.8105 27.5872 40.0212 24 40.0212C20.4129 40.0212 17.1037 38.8105 14.4578 36.7773V48H33.5423V36.7773Z" fill="#8EB547"/>
    <path d="M36.7627 34.9114H36.3546V48H48V46.1487C48 39.9525 42.959 34.9114 36.7627 34.9114Z" fill="#8EB547"/>
    <path d="M11.6454 34.9114H11.2373C5.04108 34.9114 0 39.9525 0 46.1487V48H11.6454V34.9114Z" fill="#8EB547"/>
    <path d="M29.6265 2.98364V13.1613H36.8022C36.5558 10.8728 35.7093 8.71403 34.3137 6.85187C33.0839 5.21085 31.4592 3.87938 29.6265 2.98364Z" fill="#8EB547"/>
    <path d="M13.6863 6.85206C12.2907 8.71431 11.4442 10.8729 11.1979 13.1614H18.3737V2.98364C16.5408 3.87938 14.9161 5.21094 13.6863 6.85206Z" fill="#8EB547"/>
    <path d="M24 37.2089C31.1018 37.2089 36.8796 31.4311 36.8796 24.3293V22.304H11.1206V24.3293C11.1206 31.4311 16.8983 37.2089 24 37.2089Z" fill="#8EB547"/>
    <path d="M26.8141 0H21.186V13.1614H26.8141V0Z" fill="#8EB547"/>
    <path d="M40.0447 15.9738H7.95544V19.4917H40.0447V15.9738Z" fill="#8EB547"/>
  </g>
  <defs>
    <clipPath id="clip0_317_371">
      <rect width="48" height="48" fill="white"/>
    </clipPath>
  </defs>
</svg>